<svg width="22" height="21" viewBox="0 0 22 21" fill="none" xmlns="http://www.w3.org/2000/svg">
<path d="M18 8.50005V6.80005H13.6V13.2H15.3V11.2H17.3V9.50005H15.3V8.50005H18ZM10.7 6.80005H12.4V13.2H10.7V6.80005ZM7.10002 8.40005C7.50002 8.40005 8.00002 8.60005 8.30002 8.90005L9.50002 7.90005C8.90002 7.20005 8.00002 6.80005 7.10002 6.80005C5.30002 6.80005 3.90002 8.20005 3.90002 10C3.90002 11.8 5.30002 13.2 7.10002 13.2C8.10002 13.2 8.90002 12.8 9.50002 12.1V9.60005H6.70002V10.8H7.90002V11.4C7.70002 11.5 7.40002 11.6 7.10002 11.6C6.20002 11.6 5.50002 10.9 5.50002 10C5.50002 9.20005 6.20002 8.40005 7.10002 8.40005Z" fill="#1DA1F2"/>
<path d="M19.5 0.0200195H2.5C1.26 0.0200195 0.25 1.02702 0.25 2.26702V17.774C0.25 19.012 1.26 20.02 2.5 20.02H19.5C20.74 20.02 21.75 19.012 21.75 17.774V2.26702C21.75 1.02702 20.74 0.0200195 19.5 0.0200195ZM20.25 17.774C20.25 18.184 19.914 18.52 19.5 18.52H2.5C2.086 18.52 1.75 18.184 1.75 17.774V2.26702C1.75 1.85502 2.086 1.52002 2.5 1.52002H19.5C19.914 1.52002 20.25 1.85502 20.25 2.26702V17.774Z" fill="#1DA1F2"/>
</svg>
