<svg width="20" height="20" viewBox="0 0 20 20" fill="none" xmlns="http://www.w3.org/2000/svg">
<path d="M19 5.33701H15.07L15.442 1.06501C15.478 0.653012 15.172 0.290012 14.76 0.253012C14.343 0.223012 13.984 0.523012 13.948 0.936012L13.565 5.33601H7.245L7.615 1.06601C7.652 0.653012 7.345 0.290012 6.935 0.253012C6.515 0.223012 6.158 0.523012 6.122 0.936012L5.74 5.33601H1.782C1.368 5.33601 1.032 5.67301 1.032 6.08601C1.032 6.49901 1.368 6.83601 1.782 6.83601H5.61L5.06 13.163H1C0.586 13.163 0.25 13.499 0.25 13.913C0.25 14.327 0.586 14.663 1 14.663H4.93L4.558 18.935C4.522 19.347 4.828 19.71 5.24 19.747L5.306 19.75C5.691 19.75 6.018 19.455 6.052 19.064L6.435 14.664H12.755L12.385 18.934C12.349 19.347 12.655 19.71 13.067 19.747L13.133 19.75C13.518 19.75 13.845 19.455 13.879 19.064L14.261 14.664H18.218C18.631 14.664 18.968 14.327 18.968 13.914C18.968 13.501 18.631 13.164 18.218 13.164H14.39L14.94 6.83701H19C19.414 6.83701 19.75 6.50101 19.75 6.08701C19.75 5.67301 19.414 5.33701 19 5.33701ZM12.885 13.163H6.565L7.115 6.83701H13.435L12.885 13.163Z" fill="white"/>
</svg>
