<svg width="20" height="20" viewBox="0 0 20 20" fill="none" xmlns="http://www.w3.org/2000/svg">
<path d="M15.53 5.46999L10.53 0.469994C10.237 0.176994 9.76201 0.176994 9.47001 0.469994L4.47001 5.46999C4.17601 5.76299 4.17601 6.23799 4.47001 6.52999C4.76401 6.82199 5.23701 6.82399 5.53001 6.52999L9.25001 2.80999V13C9.25001 13.414 9.58601 13.75 10 13.75C10.414 13.75 10.75 13.414 10.75 13V2.80999L14.47 6.52999C14.616 6.67699 14.808 6.74999 15 6.74999C15.192 6.74999 15.384 6.67799 15.53 6.52999C15.823 6.23699 15.823 5.76299 15.53 5.46999Z" fill="#a1a1a1"/>
<path d="M17.708 19.944H2.292C1.028 19.944 0 18.916 0 17.652V12C0 11.586 0.336 11.25 0.75 11.25C1.164 11.25 1.5 11.586 1.5 12V17.652C1.5 18.089 1.855 18.444 2.292 18.444H17.708C18.145 18.444 18.5 18.089 18.5 17.652V12C18.5 11.586 18.836 11.25 19.25 11.25C19.664 11.25 20 11.586 20 12V17.652C20 18.916 18.972 19.944 17.708 19.944Z" fill="#a1a1a1"/>
</svg>
